<?xml version="1.0" encoding="utf-8"?>
<svg version="1.1" width="163px" height="75px" xmlns:xlink="http://www.w3.org/1999/xlink" xmlns="http://www.w3.org/2000/svg">
  <defs>
    <mask fill="white" id="clip91">
      <path d="M 50 0  C 62.0307595258045 0  72.9538212855294 3.04616885671891  81.4999999991314 8.18661761102044  C 90.0461787121367 3.04616885736982  100.96924047291 0  113 0  C 141 0  163 16.5  163 37.5  C 163 58.5  141 75  113 75  C 100.96924047291 75  90.0461787121367 71.9538311426302  81.4999999981294 66.8133823906272  C 72.9538212855294 71.9538311432811  62.0307595258045 75  50 75  C 22 75  0 58.5  0 37.5  C 0 16.5  22 0  50 0  Z " fill-rule="evenodd" />
    </mask>
  </defs>
  <g transform="translate(-37 -401 )">
    <path d="M 50 0  C 62.0307595258045 0  72.9538212855294 3.04616885671891  81.4999999991314 8.18661761102044  C 90.0461787121367 3.04616885736982  100.96924047291 0  113 0  C 141 0  163 16.5  163 37.5  C 163 58.5  141 75  113 75  C 100.96924047291 75  90.0461787121367 71.9538311426302  81.4999999981294 66.8133823906272  C 72.9538212855294 71.9538311432811  62.0307595258045 75  50 75  C 22 75  0 58.5  0 37.5  C 0 16.5  22 0  50 0  Z " fill-rule="nonzero" fill="#ffffff" stroke="none" transform="matrix(1 0 0 1 37 401 )" />
    <path d="M 50 0  C 62.0307595258045 0  72.9538212855294 3.04616885671891  81.4999999991314 8.18661761102044  C 90.0461787121367 3.04616885736982  100.96924047291 0  113 0  C 141 0  163 16.5  163 37.5  C 163 58.5  141 75  113 75  C 100.96924047291 75  90.0461787121367 71.9538311426302  81.4999999981294 66.8133823906272  C 72.9538212855294 71.9538311432811  62.0307595258045 75  50 75  C 22 75  0 58.5  0 37.5  C 0 16.5  22 0  50 0  Z " stroke-width="2" stroke="#797979" fill="none" transform="matrix(1 0 0 1 37 401 )" mask="url(#clip91)" />
  </g>
</svg>