<?xml version="1.0" encoding="utf-8"?>
<svg version="1.1" width="37px" height="59px" xmlns:xlink="http://www.w3.org/1999/xlink" xmlns="http://www.w3.org/2000/svg">
  <defs>
    <mask fill="white" id="clip1136">
      <path d="M 0 29.5  C 0 17.5230696453174  7.15607921963766 7.00988276737877  18.4999999981294 0.186617609372831  C 29.8439207792104 7.00988276568637  37 17.5230696443533  37 29.5  C 37 41.4769303556467  29.8439207792104 51.9901172343136  18.4999999991314 58.8133823889796  C 7.15607921963766 51.9901172326212  0 41.4769303546826  0 29.5  Z " fill-rule="evenodd" />
    </mask>
  </defs>
  <g transform="translate(-100 -479 )">
    <path d="M 0 29.5  C 0 17.5230696453174  7.15607921963766 7.00988276737877  18.4999999981294 0.186617609372831  C 29.8439207792104 7.00988276568637  37 17.5230696443533  37 29.5  C 37 41.4769303556467  29.8439207792104 51.9901172343136  18.4999999991314 58.8133823889796  C 7.15607921963766 51.9901172326212  0 41.4769303546826  0 29.5  Z " fill-rule="nonzero" fill="#00bfbf" stroke="none" fill-opacity="0.76078431372549" transform="matrix(1 0 0 1 100 479 )" />
    <path d="M 0 29.5  C 0 17.5230696453174  7.15607921963766 7.00988276737877  18.4999999981294 0.186617609372831  C 29.8439207792104 7.00988276568637  37 17.5230696443533  37 29.5  C 37 41.4769303556467  29.8439207792104 51.9901172343136  18.4999999991314 58.8133823889796  C 7.15607921963766 51.9901172326212  0 41.4769303546826  0 29.5  Z " stroke-width="2" stroke="#797979" fill="none" transform="matrix(1 0 0 1 100 479 )" mask="url(#clip1136)" />
  </g>
</svg>