<?xml version="1.0" encoding="utf-8"?>
<svg version="1.1" width="30px" height="29px" xmlns:xlink="http://www.w3.org/1999/xlink" xmlns="http://www.w3.org/2000/svg">
  <g transform="translate(-20 -21 )">
    <path d="M 0 6.21428571428571  L 15 0  L 30 6.21428571428571  L 30 8.28571428571428  L 28 8.28571428571428  C 28 8.56622023809524  27.8932291666667 8.80896577380952  27.6796875 9.01395089285714  C 27.4661458333333 9.21893601190476  27.2135416666667 9.32142857142857  26.921875 9.32142857142857  L 3.078125 9.32142857142857  C 2.78645833333333 9.32142857142857  2.53385416666667 9.21893601190476  2.3203125 9.01395089285714  C 2.10677083333333 8.80896577380952  2 8.56622023809524  2 8.28571428571428  L 0 8.28571428571428  L 0 6.21428571428571  Z M 4 22.7857142857143  L 4 10.3571428571429  L 8 10.3571428571429  L 8 22.7857142857143  L 10 22.7857142857143  L 10 10.3571428571429  L 14 10.3571428571429  L 14 22.7857142857143  L 16 22.7857142857143  L 16 10.3571428571429  L 20 10.3571428571429  L 20 22.7857142857143  L 22 22.7857142857143  L 22 10.3571428571429  L 26 10.3571428571429  L 26 22.7857142857143  L 26.921875 22.7857142857143  C 27.2135416666667 22.7857142857143  27.4661458333333 22.8882068452381  27.6796875 23.0931919642857  C 27.8932291666667 23.2981770833333  28 23.5409226190476  28 23.8214285714286  L 28 24.8571428571429  L 2 24.8571428571429  L 2 23.8214285714286  C 2 23.5409226190476  2.10677083333333 23.2981770833333  2.3203125 23.0931919642857  C 2.53385416666667 22.8882068452381  2.78645833333333 22.7857142857143  3.078125 22.7857142857143  L 4 22.7857142857143  Z M 1.078125 25.8928571428571  L 28.921875 25.8928571428571  C 29.2135416666667 25.8928571428571  29.4661458333333 25.9953497023809  29.6796875 26.2003348214286  C 29.8932291666667 26.4053199404762  30 26.6480654761905  30 26.9285714285714  L 30 29  L 0 29  L 0 26.9285714285714  C 0 26.6480654761905  0.106770833333333 26.4053199404762  0.3203125 26.2003348214286  C 0.533854166666667 25.9953497023809  0.786458333333333 25.8928571428571  1.078125 25.8928571428571  Z " fill-rule="nonzero" fill="#000000" stroke="none" transform="matrix(1 0 0 1 20 21 )" />
  </g>
</svg>