<?xml version="1.0" encoding="utf-8"?>
<svg version="1.1" width="124px" height="22px" xmlns:xlink="http://www.w3.org/1999/xlink" xmlns="http://www.w3.org/2000/svg">
  <g transform="translate(-113 -97 )">
    <path d="M 126.5 104.5  A 3.5 3.5 0 0 0 123 108 A 3.5 3.5 0 0 0 126.5 111.5 A 3.5 3.5 0 0 0 130 108 A 3.5 3.5 0 0 0 126.5 104.5 Z M 223.5 104.5  A 3.5 3.5 0 0 0 220 108 A 3.5 3.5 0 0 0 223.5 111.5 A 3.5 3.5 0 0 0 227 108 A 3.5 3.5 0 0 0 223.5 104.5 Z " fill-rule="nonzero" fill="#000000" stroke="none" />
    <path d="M 125 108  L 225 108  " stroke-width="2" stroke="#000000" fill="none" />
  </g>
</svg>