<?xml version="1.0" encoding="utf-8"?>
<svg version="1.1" width="24px" height="23px" xmlns:xlink="http://www.w3.org/1999/xlink" xmlns="http://www.w3.org/2000/svg">
  <g transform="translate(-10 -11 )">
    <path d="M 0 4.92857142857143  L 12 0  L 24 4.92857142857143  L 24 6.57142857142857  L 22.4 6.57142857142857  C 22.4 6.79389880952381  22.3145833333333 6.98642113095238  22.14375 7.14899553571429  C 21.9729166666667 7.31156994047619  21.7708333333333 7.39285714285714  21.5375 7.39285714285714  L 2.4625 7.39285714285714  C 2.22916666666667 7.39285714285714  2.02708333333333 7.31156994047619  1.85625 7.14899553571429  C 1.68541666666667 6.98642113095238  1.6 6.79389880952381  1.6 6.57142857142857  L 0 6.57142857142857  L 0 4.92857142857143  Z M 3.2 18.0714285714286  L 3.2 8.21428571428571  L 6.4 8.21428571428571  L 6.4 18.0714285714286  L 8 18.0714285714286  L 8 8.21428571428571  L 11.2 8.21428571428571  L 11.2 18.0714285714286  L 12.8 18.0714285714286  L 12.8 8.21428571428571  L 16 8.21428571428571  L 16 18.0714285714286  L 17.6 18.0714285714286  L 17.6 8.21428571428571  L 20.8 8.21428571428571  L 20.8 18.0714285714286  L 21.5375 18.0714285714286  C 21.7708333333333 18.0714285714286  21.9729166666667 18.1527157738095  22.14375 18.3152901785714  C 22.3145833333333 18.4778645833333  22.4 18.6703869047619  22.4 18.8928571428571  L 22.4 19.7142857142857  L 1.6 19.7142857142857  L 1.6 18.8928571428571  C 1.6 18.6703869047619  1.68541666666667 18.4778645833333  1.85625 18.3152901785714  C 2.02708333333333 18.1527157738095  2.22916666666667 18.0714285714286  2.4625 18.0714285714286  L 3.2 18.0714285714286  Z M 0.8625 20.5357142857143  L 23.1375 20.5357142857143  C 23.3708333333333 20.5357142857143  23.5729166666667 20.6170014880952  23.74375 20.7795758928571  C 23.9145833333333 20.942150297619  24 21.1346726190476  24 21.3571428571429  L 24 23  L 0 23  L 0 21.3571428571429  C 0 21.1346726190476  0.0854166666666667 20.942150297619  0.25625 20.7795758928571  C 0.427083333333333 20.6170014880952  0.629166666666667 20.5357142857143  0.8625 20.5357142857143  Z " fill-rule="nonzero" fill="#ffffff" stroke="none" transform="matrix(1 0 0 1 10 11 )" />
  </g>
</svg>