<?xml version="1.0" encoding="utf-8"?>
<svg version="1.1" width="120px" height="120px" xmlns:xlink="http://www.w3.org/1999/xlink" xmlns="http://www.w3.org/2000/svg">
  <defs>
    <filter x="-50%" y="-50%" width="200%" height="200%" filterUnits="objectBoundingBox" id="filter1">
      <feOffset dx="5" dy="5" in="SourceAlpha" result="shadowOffsetInner" />
      <feGaussianBlur stdDeviation="2.5" in="shadowOffsetInner" result="shadowGaussian" />
      <feComposite in2="shadowGaussian" operator="atop" in="SourceAlpha" result="shadowComposite" />
      <feColorMatrix type="matrix" values="0 0 0 0 0  0 0 0 0 0  0 0 0 0 0  0 0 0 0.349019607843137 0  " in="shadowComposite" />
    </filter>
    <g id="widget2">
      <path d="M 55 0  C 85.8 0  110 24.2  110 55  C 110 85.8  85.8 110  55 110  C 24.2 110  0 85.8  0 55  C 0 24.2  24.2 0  55 0  Z " fill-rule="nonzero" fill="#00ffff" stroke="none" />
      <path d="M 55 0.5  C 85.52 0.5  109.5 24.48  109.5 55  C 109.5 85.52  85.52 109.5  55 109.5  C 24.48 109.5  0.5 85.52  0.5 55  C 0.5 24.48  24.48 0.5  55 0.5  Z " stroke-width="1" stroke="#000000" fill="none" />
    </g>
  </defs>
  <g transform="translate(0 0 )">
    <use xlink:href="#widget2" filter="url(#filter1)" />
    <use xlink:href="#widget2" />
  </g>
</svg>