<?xml version="1.0" encoding="utf-8"?>
<svg version="1.1" width="17px" height="10px" xmlns:xlink="http://www.w3.org/1999/xlink" xmlns="http://www.w3.org/2000/svg">
  <g transform="translate(-83 -5 )">
    <path d="M 3 9.10000000000002  C 3 9.60399999999999  2.56 10  2 10  L 1 10  C 0.439999999999998 10  0 9.60399999999999  0 9.10000000000002  L 0 6.39999999999998  C 0 5.89600000000002  0.439999999999998 5.5  1 5.5  L 2 5.5  C 2.56 5.5  3 5.89600000000002  3 6.39999999999998  L 3 9.10000000000002  Z M 7.5 9  C 7.5 9.56  7.06 10  6.5 10  L 5.5 10  C 4.94 10  4.5 9.56  4.5 9  L 4.5 5  C 4.5 4.44  4.94 4  5.5 4  L 6.5 4  C 7.06 4  7.5 4.44  7.5 5  L 7.5 9  Z M 11 10  L 10 10  C 9.44 10  9 9.56  9 9  L 9 3  C 9 2.44  9.44 2  10 2  L 11 2  C 11.56 2  12 2.44  12 3  L 12 9  C 12 9.56  11.56 10  11 10  Z M 14.5 10  C 13.94 10  13.5 9.56  13.5 9  L 13.5 1  C 13.5 0.439999999999998  13.94 0  14.5 0  L 15.5 0  C 16.06 0  16.5 0.439999999999998  16.5 1  L 16.5 9  C 16.5 9.56  16.06 10  15.5 10  L 14.5 10  Z " fill-rule="nonzero" fill="#000000" stroke="none" transform="matrix(1 0 0 1 83 5 )" />
  </g>
</svg>