<?xml version="1.0" encoding="utf-8"?>
<svg version="1.1" width="12px" height="21px" xmlns:xlink="http://www.w3.org/1999/xlink" xmlns="http://www.w3.org/2000/svg">
  <g transform="translate(-9 -32 )">
    <path d="M 11.5606601717798 18.4393398282202  C 11.5606601717798 18.4393398282202  3.62132034355964 10.5  3.62132034355964 10.5  C 3.62132034355964 10.5  11.5606601717798 2.56066017177982  11.5606601717798 2.56066017177982  C 12.1464466094067 1.97487373415292  12.1464466094067 1.02512626584708  11.5606601717798 0.439339828220179  C 10.9748737341529 -0.146446609406726  10.0251262658471 -0.146446609406726  9.43933982822018 0.439339828220179  C 9.43933982822018 0.439339828220179  0.439339828220179 9.43933982822018  0.439339828220179 9.43933982822018  C -0.146446609406726 10.0251262658471  -0.146446609406726 10.9748737341529  0.439339828220179 11.5606601717798  C 0.439339828220179 11.5606601717798  9.43933982822018 20.5606601717798  9.43933982822018 20.5606601717798  C 10.0251262658471 21.1464466094067  10.9748737341529 21.1464466094067  11.5606601717798 20.5606601717798  C 12.1464466094067 19.9748737341529  12.1464466094067 19.0251262658471  11.5606601717798 18.4393398282202  Z " fill-rule="nonzero" fill="#007aff" stroke="none" transform="matrix(1 0 0 1 9 32 )" />
  </g>
</svg>