<?xml version="1.0" encoding="utf-8"?>
<svg version="1.1" width="15px" height="10px" xmlns:xlink="http://www.w3.org/1999/xlink" xmlns="http://www.w3.org/2000/svg">
  <g transform="translate(-106 -5 )">
    <path d="M 7.5 2  C 5.27998170182042 2  3.25874359746052 2.85107918227783  1.74476161687693 4.24476161687682  C 1.74476161687693 4.24476161687682  0.329562764653303 2.8295627646533  0.329562764670527 2.82956276463716  C 2.20631605373541 1.07441256599304  4.72768677662589 0  7.5 0  C 10.2723132233826 0  12.79368394628 1.07441256599958  14.6704372353467 2.8295627646533  C 14.6704372353467 2.8295627646533  13.2552383831231 4.24476161687687  13.2552383831231 4.24476161687687  C 11.7412564025395 2.85107918227783  9.72001829817958 2  7.5 2  Z M 10.7767384454566 6.72326155454334  C 9.89919918083238 5.96124278152922  8.75346410233202 5.5  7.49999999999999 5.5  C 6.24653589766795 5.5  5.10080081916759 5.96124278152922  4.22326155454338 6.72326155454329  C 4.22326155454338 6.72326155454329  2.8065308699933 5.30653086999337  2.8065308699933 5.30653086999337  C 4.04812253337893 4.18377399336543  5.69420928008212 3.5  7.49999999999999 3.5  C 9.30579071991785 3.5  10.951877466621 4.18377399336543  12.1934691300066 5.30653086999337  C 12.1934691300066 5.30653086999337  10.7767384454566 6.72326155454334  10.7767384454566 6.72326155454334  Z M 7.49999999999997 10  L 5.28770884024911 7.78770884024891  C 5.89065400752801 7.29532392394043  6.66083870463572 7  7.49999999999997 7  C 8.33916129536422 7  9.10934599247193 7.29532392394043  9.71229115975083 7.78770884024891  C 9.71229115975083 7.78770884024891  7.49999999999997 10  7.49999999999997 10  Z " fill-rule="nonzero" fill="#000000" stroke="none" transform="matrix(1 0 0 1 106 5 )" />
  </g>
</svg>