<?xml version="1.0" encoding="utf-8"?>
<svg version="1.1" width="44px" height="44px" xmlns:xlink="http://www.w3.org/1999/xlink" xmlns="http://www.w3.org/2000/svg">
  <g transform="translate(0 0 )">
    <path d="M 22 41.5988284109627  C 13.8 31.5223559452078  1.5 25.4764724657549  1.5 15.4  C 1.5 10.2371428571429  5.6 1.5  22 1.5  C 38.4 1.5  42.5 10.2371428571429  42.5 15.4  C 42.5 25.4764724657549  30.2 31.5223559452078  22 41.5988284109627  Z " fill-rule="nonzero" fill="#ffffff" stroke="none" />
    <path d="M 22 44  C 13.2 33  0 26.4  0 15.4  C 0 9.68  4.4 0  22 0  C 39.6 0  44 9.68  44 15.4  C 44 26.4  30.8 33  22 44  Z M 22 40.7984378812836  C 30 31.0298079269437  42 25.1686299543398  42 15.4  C 42 10.4228571428571  38 2  22 2  C 6 2  2 10.4228571428571  2 15.4  C 2 25.1686299543398  14 31.0298079269437  22 40.7984378812836  Z " fill-rule="nonzero" fill="#00bfbf" stroke="none" />
  </g>
</svg>